<?xml version="1.0" encoding="iso-8859-1"?>
<!-- Generator: Adobe Illustrator 19.0.0, SVG Export Plug-In . SVG Version: 6.00 Build 0)  -->
<svg version="1.1" id="Layer_1" xmlns="http://www.w3.org/2000/svg" xmlns:xlink="http://www.w3.org/1999/xlink" x="0px" y="0px"
	 viewBox="0 0 459 459" style="enable-background:new 0 0 459 459;" xml:space="preserve">
<g>
	<g>
		<path d="M451.5,112.775H7.5c-4.142,0-7.5,3.358-7.5,7.5v37.763c0,13.864,6.982,26.286,18,33.56V312.44
			c0,18.629,15.156,33.785,33.785,33.785h355.43c18.629,0,33.785-15.156,33.785-33.785V191.598c11.018-7.274,18-19.696,18-33.56
			v-37.763C459,116.133,455.642,112.775,451.5,112.775z M426,312.44c0,10.358-8.427,18.785-18.785,18.785H51.785
			C41.427,331.225,33,322.798,33,312.44V197.682l181.56,43.198c4.887,1.163,9.914,1.744,14.941,1.744
			c5.026,0,10.053-0.581,14.94-1.744L426,197.682V312.44z M444,158.038c0,11.742-7.978,21.84-19.4,24.558l-183.631,43.691
			c-7.503,1.786-15.435,1.785-22.938,0l-183.63-43.691C22.978,179.878,15,169.78,15,158.038v-30.263h429V158.038z"/>
	</g>
</g>
<g>
	<g>
		<path d="M234.803,197.419c-1.4-1.39-3.33-2.19-5.3-2.19c-1.98,0-3.91,0.8-5.31,2.19c-1.39,1.4-2.19,3.33-2.19,5.31
			c0,1.97,0.8,3.9,2.19,5.3c1.4,1.4,3.33,2.2,5.31,2.2c1.97,0,3.9-0.8,5.3-2.2c1.4-1.4,2.2-3.33,2.2-5.3
			C237.003,200.749,236.203,198.819,234.803,197.419z"/>
	</g>
</g>
<g>
</g>
<g>
</g>
<g>
</g>
<g>
</g>
<g>
</g>
<g>
</g>
<g>
</g>
<g>
</g>
<g>
</g>
<g>
</g>
<g>
</g>
<g>
</g>
<g>
</g>
<g>
</g>
<g>
</g>
</svg>
