<svg height="512pt" viewBox="-10 0 512 512" width="512pt" xmlns="http://www.w3.org/2000/svg"><path d="m427.8125 0h-250.25c-35.390625 0-64.1875 28.792969-64.1875 64.1875v9.539062h15v-9.539062c0-27.121094 22.066406-49.1875 49.1875-49.1875h209.054688c-14.046876 11.785156-22.992188 29.460938-22.992188 49.1875v383.625c0 27.121094-22.066406 49.1875-49.1875 49.1875-27.125 0-49.1875-22.0625-49.1875-49.1875v-102.714844h-265.25v102.714844c0 35.394531 28.792969 64.1875 64.1875 64.1875h250.3125c35.363281-.035156 64.125-28.816406 64.125-64.1875v-383.625c0-27.121094 22.066406-49.1875 49.1875-49.1875 27.125 0 49.1875 22.066406 49.1875 49.1875v87.714844h-85.875v15h100.875v-102.714844c0-35.394531-28.792969-64.1875-64.1875-64.1875zm-363.625 497c-27.121094 0-49.1875-22.066406-49.1875-49.1875v-87.710938h235.25v87.710938c0 19.726562 8.945312 37.40625 23.003906 49.1875zm0 0"/><path d="m23.761719 121.929688c10.933593 31.253906 31.652343 76.1875 68.238281 112.773437 21.71875 21.71875 46.371094 37.84375 69.363281 49.648437h-15.386719v15h49.003907c3.386719 1.300782 6.660156 2.496094 9.796875 3.59375 27.96875 9.785157 49.886718 13.664063 57.21875 14.785157l35.417968 35.417969 5.175782-5.175782h17.550781v-15h-21.6875l-25.847656-25.847656c-.273438-1.777344-.707031-4.40625-1.34375-7.773438h48.878906v-15h-52.132813c-2.269531-9.367187-5.464843-20.847656-9.902343-33.621093h32.984375v-15h-38.578125c-4.171875-10.449219-9.308594-21.859375-15.578125-33.617188h83.207031v-15h-91.742187c-10.335938-17.039062-23.117188-34.28125-38.820313-49.984375-36.589844-36.589844-81.523437-57.304687-112.773437-68.238281-33.8125-11.832031-58.785157-15.03125-59.832032-15.160156l-9.558594-1.191407 1.191407 9.5625c.128906 1.042969 3.324219 26.015626 15.15625 59.828126zm46.59375-39.335938v25.777344h15v-20.214844c22.164062 8.8125 46.886719 21.335938 69.957031 38.941406v54.914063h15v-42.488281c2.933594 2.640624 5.824219 5.375 8.660156 8.210937 12.75 12.75 23.519532 26.632813 32.597656 40.746094v45.992187h15v-19.707031c14.191407 28.09375 22.34375 54.867187 26.789063 73.113281l-163.835937-163.835937-10.605469 10.605469 163.859375 163.859374c-30.855469-7.492187-86.140625-25.613281-130.988282-65.730468h34.1875v-15h-49.445312c-10.085938-10.902344-18.832031-22.492188-26.402344-34.242188h19.277344v-15h-28.292969c-22.648437-40.414062-32.359375-80.140625-35.890625-98.195312 9.789063 1.90625 25.945313 5.628906 45.132813 12.253906zm0 0"/><path d="m211.570312 99.339844v60.015625h11.003907l7.75-5.875 7.753906 5.875h11v-60.015625h-15v38.167968l-3.753906-2.847656-3.753907 2.847656v-38.167968zm0 0"/><path d="m254.820312 99.339844h15v60.015625h-15zm0 0"/><path d="m274.820312 99.339844v60.015625h37.507813v-15h-22.507813v-45.015625zm0 0"/><path d="m317.328125 99.339844v60.015625h37.507813v-15h-22.507813v-45.015625zm0 0"/><path d="m113.375 274.832031h15v57.765625h-15zm0 0"/><path d="m232.75 385.097656h-46.925781v-15h46.925781zm-56.925781 0h-15v-15h15zm-25 0h-15v-15h15zm0 0"/><path d="m352.519531 40h-51.523437v-15h51.523437zm-61.523437 0h-15v-15h15zm-25 0h-15v-15h15zm0 0"/></svg>